<?xml version="1.0" encoding="UTF-8" standalone="no"?>
<!-- Created with Inkscape (http://www.inkscape.org/) -->

<svg
   xmlns:dc="http://purl.org/dc/elements/1.1/"
   xmlns:cc="http://creativecommons.org/ns#"
   xmlns:rdf="http://www.w3.org/1999/02/22-rdf-syntax-ns#"
   xmlns:svg="http://www.w3.org/2000/svg"
   xmlns="http://www.w3.org/2000/svg"
   xmlns:xlink="http://www.w3.org/1999/xlink"
   xmlns:sodipodi="http://sodipodi.sourceforge.net/DTD/sodipodi-0.dtd"
   xmlns:inkscape="http://www.inkscape.org/namespaces/inkscape"
   width="163.28572mm"
   height="163.28572mm"
   viewBox="0 0 163.28572 163.28572"
   version="1.1"
   id="svg1117"
   inkscape:version="0.92.4 (5da689c313, 2019-01-14)"
   sodipodi:docname="begong_space_flat.svg">
  <defs
     id="defs1111">
    <linearGradient
       inkscape:collect="always"
       xlink:href="#linearGradient1026"
       id="linearGradient1028"
       x1="806.31512"
       y1="-85.293106"
       x2="909.34998"
       y2="-176.76335"
       gradientUnits="userSpaceOnUse" />
    <linearGradient
       inkscape:collect="always"
       id="linearGradient1026">
      <stop
         id="stop1024"
         offset="0"
         style="stop-color:#ffffff;stop-opacity:0;" />
      <stop
         id="stop1022"
         offset="1"
         style="stop-color:#ffffff;stop-opacity:1;" />
    </linearGradient>
  </defs>
  <sodipodi:namedview
     id="base"
     pagecolor="#ffffff"
     bordercolor="#666666"
     borderopacity="1.0"
     inkscape:pageopacity="0.0"
     inkscape:pageshadow="2"
     inkscape:zoom="0.35"
     inkscape:cx="-144.28572"
     inkscape:cy="317.14287"
     inkscape:document-units="mm"
     inkscape:current-layer="layer1"
     showgrid="false"
     fit-margin-top="0"
     fit-margin-left="0"
     fit-margin-right="0"
     fit-margin-bottom="0"
     inkscape:window-width="1366"
     inkscape:window-height="713"
     inkscape:window-x="-8"
     inkscape:window-y="-8"
     inkscape:window-maximized="1" />
  <metadata
     id="metadata1114">
    <rdf:RDF>
      <cc:Work
         rdf:about="">
        <dc:format>image/svg+xml</dc:format>
        <dc:type
           rdf:resource="http://purl.org/dc/dcmitype/StillImage" />
        <dc:title></dc:title>
      </cc:Work>
    </rdf:RDF>
  </metadata>
  <g
     inkscape:label="Layer 1"
     inkscape:groupmode="layer"
     id="layer1"
     transform="translate(-18.142859,-69.45833)">
    <g
       id="g1084"
       transform="translate(431.64881,11.339285)">
      <g
         id="g951"
         transform="translate(-1123.0475,246.02158)">
        <path
           style="opacity:1;fill:#ffffff;fill-opacity:1;stroke:none;stroke-width:10;stroke-miterlimit:4;stroke-dasharray:none;stroke-opacity:1"
           d="m -434.28516,38.890625 c -157.92858,0 -285.95507,128.026495 -285.95507,285.955075 0.0506,62.97449 27.21541,117.01814 65.47851,166.84766 1.62939,2.12198 -1.98548,40.78491 -0.29297,42.86523 56.63218,7.87752 148.16464,20.83594 232.24805,20.83594 87.51791,0 151.83283,-13.92575 212.04297,-21.78906 4.87143,-6.03213 -5.26386,-40.67571 -0.92383,-47.04297 7.04646,-10.33785 14.04008,-21.14576 20.66797,-32.32422 -2.23496,0.0902 -4.57411,0.10999 -7.01563,0.0781 l -128.1289,-1.67188 -102.26563,-70.31445 c -0.87736,-0.60324 -1.72923,-1.31885 -2.55273,-2.11914 a 72.957631,72.957631 0 0 1 -28.21289,5.75195 72.957631,72.957631 0 0 1 -72.95703,-72.95703 72.957631,72.957631 0 0 1 69.55664,-72.83789 L -325.92383,60.158203 C -359.34668,46.460366 -395.92897,38.890625 -434.28516,38.890625 Z"
           transform="matrix(0.26458333,0,0,0.26458333,907.24451,-184.87865)"
           id="path931"
           inkscape:connector-curvature="0" />
        <path
           style="fill:url(#linearGradient1028);fill-opacity:1;stroke:none;stroke-width:2.14599991;stroke-linecap:butt;stroke-linejoin:miter;stroke-miterlimit:4;stroke-dasharray:none;stroke-opacity:1"
           d="m 807.77238,-142.80454 c -0.498,0.77314 -6.314,0.66647 -6.8756,1.40733 l -16.53016,36.16074 -7.53362,16.517464 8.00917,5.541042 c -2.00785,-3.201217 1.54783,-2.111391 7.15695,-2.437726 l 15.24366,9.309253 c 6.0482,-2.779349 13.2787,-1.3726 16.2438,-1.124941 1.7166,0.143315 3.6715,-0.879702 6.4593,1.08071 3.7082,0.04336 7.2521,1.221894 8.6981,4.280666 0.6912,0.12921 1.3925,0.197716 2.1021,0.190473 7.4618,-0.07631 8.9612,-5.624804 9.0986,-6.041098 0.714,-2.160882 -3.8763,-6.798146 2.1538,-5.611186 6.0302,1.186961 8.5104,-5.198687 5.2766,-9.17151 -2.6692,-3.792764 -9.2053,-4.501856 -11.8725,-4.581993 2.526,-0.418002 1.9875,-3.416104 1.9875,-3.416104 0,0 -6.9135,-8.40349 -5.8367,-10.12997 1.0768,-1.72647 0.6458,-7.33773 -1.9386,-8.84838 -2.5842,-1.51068 -12.0595,2.37441 -8.6137,-0.64689 3.4457,-3.02133 5.7929,-8.08534 2.3819,-12.76994 -3.3349,-4.60825 -12.9351,-8.81104 -17.6731,-12.04816 -2.5973,-1.77457 5.6068,2.56406 -4.2332,1.54784 z"
           id="path933"
           inkscape:connector-curvature="0"
           sodipodi:nodetypes="ccccccccccccccccccscccc" />
        <path
           style="opacity:1;fill:#ffffff;fill-opacity:1;stroke:#000000;stroke-width:2.64600015;stroke-miterlimit:4;stroke-dasharray:none;stroke-opacity:1"
           d="m 784.83573,-121.31622 36.57655,-48.17501 c 1.7681,-2.32883 6.56,-1.72201 10.7441,1.36057 4.1841,3.08257 2.0132,5.56815 0.245,7.89697 l -36.57645,48.17502 c -1.76814,2.32882 -2.44409,3.59289 -6.62821,0.51032 -4.18413,-3.08259 -6.12912,-7.43905 -4.36099,-9.76787 z"
           id="path935"
           inkscape:connector-curvature="0"
           sodipodi:nodetypes="sssssss" />
        <path
           style="opacity:1;fill:#ffffff;fill-opacity:1;stroke:#000000;stroke-width:2.64599991;stroke-miterlimit:4;stroke-dasharray:none;stroke-opacity:1"
           d="m 794.6751,-99.659915 28.81148,22.228537 33.5515,-0.07529 c 4.0361,-0.0091 7.8861,1.720306 7.2671,6.815561 -0.6433,5.29545 -4.169,6.086196 -9.4576,6.017177 l -33.9008,-0.442414 -27.05788,-18.603928 c -2.88896,-1.986333 -4.77112,-8.232708 -3.23413,-13.197662 1.53699,-4.964956 1.11515,-4.704516 4.02033,-2.741984 z"
           id="path937"
           inkscape:connector-curvature="0"
           sodipodi:nodetypes="scssscsss" />
        <circle
           r="19.303373"
           cy="-102.0625"
           cx="785.74915"
           id="circle939"
           style="opacity:1;fill:#ffffff;fill-opacity:1;stroke:#000000;stroke-width:1.94599998;stroke-miterlimit:4;stroke-dasharray:none;stroke-opacity:1" />
        <rect
           style="opacity:1;fill:#000000;fill-opacity:1;stroke:none;stroke-width:2.64664721;stroke-miterlimit:4;stroke-dasharray:none;stroke-opacity:1"
           id="rect941"
           width="29.061096"
           height="4.6781178"
           x="546.46021"
           y="537.90076"
           rx="0"
           ry="0"
           transform="matrix(0.63804225,-0.77000135,0.79189532,0.61065686,0,0)" />
        <path
           style="fill:#ffffff;stroke:none;stroke-width:0.26458332px;stroke-linecap:butt;stroke-linejoin:miter;stroke-opacity:1"
           d="m 839.18288,-149.18884 c 0,0 18.5209,9.78959 20.1084,33.86667"
           id="path943"
           inkscape:connector-curvature="0" />
        <path
           style="fill:#030303;fill-opacity:1;stroke:none;stroke-width:0.26458332px;stroke-linecap:butt;stroke-linejoin:miter;stroke-opacity:1"
           d="m 733.82188,-98.174115 c -1.75199,-2.408985 -3.93961,18.164034 4.7625,28.575 7.58283,9.071893 1.06107,-12.038542 1.06107,-12.038542 0,0 -3.97149,-22.886463 -5.82357,-16.536458 z"
           id="path945"
           inkscape:connector-curvature="0"
           sodipodi:nodetypes="cscc" />
        <ellipse
           style="opacity:1;fill:#030303;fill-opacity:1;stroke:none;stroke-width:2.14600015;stroke-miterlimit:4;stroke-dasharray:none;stroke-opacity:1"
           id="ellipse947"
           cx="744.73596"
           cy="-64.638176"
           rx="1.3890625"
           ry="1.5213542" />
        <ellipse
           ry="0.7244544"
           rx="0.66145837"
           cy="-112.66319"
           cx="859.63129"
           id="ellipse949"
           style="opacity:1;fill:#ffffff;fill-opacity:1;stroke:none;stroke-width:2.14600015;stroke-miterlimit:4;stroke-dasharray:none;stroke-opacity:1" />
      </g>
      <rect
         y="58.119045"
         x="-413.50595"
         height="163.28572"
         width="163.28572"
         id="rect1070"
         style="opacity:1;fill:none;fill-opacity:0;stroke:none;stroke-width:1.94599998;stroke-miterlimit:4;stroke-dasharray:none;stroke-opacity:1" />
    </g>
  </g>
</svg>
